<svg xmlns="http://www.w3.org/2000/svg" width="149" height="32" viewBox="0 0 149 32" fill="none">
    <g clip-path="url(#clip0_1841_14553)">
        <path d="M18.5465 13.0728C18.5465 5.85443 24.3868 0 31.5877 0C38.7886 0 44.6288 5.85443 44.6288 13.0728C44.6288 21.823 37.1139 25.1593 32.0691 31.6852C31.9226 31.8741 31.797 31.979 31.5877 31.979C31.3783 31.979 31.2527 31.8531 31.1062 31.6852C26.0614 25.1384 18.5465 21.823 18.5465 13.0728ZM16.5579 13.0728C16.5579 10.5548 17.1859 8.18361 18.2744 6.08525C18.4209 5.81246 18.3581 5.45574 18.1278 5.2459C16.5369 3.73508 14.946 2.14033 13.5226 0.314754C13.3761 0.125902 13.2505 0.0209841 13.0412 0.0209841C12.8318 0.0209841 12.7062 0.146885 12.5597 0.314754C7.53582 6.86164 0 10.177 0 18.9272C0 26.1456 5.84026 32 13.0412 32C17.1231 32 20.7444 30.1325 23.1308 27.1948C23.3611 26.922 23.3401 26.5023 23.068 26.2505C19.6559 22.8302 16.5579 19.0741 16.5579 13.0728ZM51.746 11.1633H56.4349C57.5653 11.1633 58.591 11.3941 59.4702 11.8348C60.3494 12.2754 61.0402 12.9049 61.5426 13.7233C62.0449 14.5416 62.2752 15.4649 62.2752 16.5351C62.2752 17.6052 62.024 18.5285 61.5426 19.3469C61.0611 20.1652 60.3703 20.7948 59.4702 21.2354C58.591 21.6761 57.5653 21.9069 56.4349 21.9069H51.7669V11.1633H51.746ZM56.3303 20.2072C57.1048 20.2072 57.7956 20.0603 58.4026 19.7456C58.9888 19.4518 59.4493 19.0111 59.7842 18.4656C60.0982 17.899 60.2657 17.2695 60.2657 16.5351C60.2657 15.8007 60.0982 15.1502 59.7842 14.6046C59.4702 14.038 59.0097 13.6184 58.4026 13.3246C57.7956 13.0308 57.1257 12.863 56.3303 12.863H53.7346V20.2072H56.3303ZM65.3942 21.4452C64.7243 21.0885 64.222 20.5849 63.8452 19.9554C63.4684 19.3259 63.28 18.5915 63.28 17.7941C63.28 16.9967 63.4684 16.2623 63.8452 15.6328C64.222 15.0033 64.7243 14.4997 65.3942 14.1429C66.0641 13.7862 66.7967 13.5974 67.634 13.5974C68.4713 13.5974 69.2249 13.7862 69.8738 14.1429C70.5437 14.4997 71.0461 15.0033 71.4229 15.6328C71.7997 16.2623 71.988 16.9757 71.988 17.7941C71.988 18.5915 71.7997 19.3259 71.4229 19.9554C71.0461 20.5849 70.5437 21.0885 69.8738 21.4452C69.204 21.802 68.4713 21.9908 67.634 21.9908C66.7967 21.9908 66.0641 21.802 65.3942 21.4452ZM69.3714 19.6407C69.832 19.179 70.0622 18.5495 70.0622 17.7941C70.0622 17.0387 69.832 16.4092 69.3714 15.9475C68.9109 15.4859 68.3248 15.2341 67.634 15.2341C66.9223 15.2341 66.3571 15.4649 65.8966 15.9475C65.4361 16.4092 65.2267 17.0387 65.2267 17.7941C65.2267 18.5495 65.457 19.179 65.8966 19.6407C66.3571 20.1023 66.9223 20.3541 67.634 20.3541C68.3248 20.3541 68.9109 20.1233 69.3714 19.6407ZM80.5496 14.5207C81.1776 15.1292 81.4916 16.0105 81.4916 17.2066V21.8859H79.5867V17.4374C79.5867 16.7239 79.4192 16.1784 79.0843 15.8216C78.7494 15.4649 78.2679 15.2761 77.6399 15.2761C76.9282 15.2761 76.3839 15.4859 75.9653 15.9056C75.5676 16.3252 75.3582 16.9338 75.3582 17.7311V21.8649H73.4533V13.6813H75.2745V14.7305C75.5885 14.3528 75.9862 14.059 76.4677 13.8702C76.9491 13.6813 77.4934 13.5764 78.0795 13.5764C79.1052 13.6184 79.9216 13.9121 80.5496 14.5207ZM84.9664 21.4452C84.2966 21.0885 83.7942 20.5849 83.4174 19.9554C83.0406 19.3259 82.8522 18.5915 82.8522 17.7941C82.8522 16.9967 83.0406 16.2623 83.4174 15.6328C83.7942 15.0033 84.2966 14.4997 84.9664 14.1429C85.6363 13.7862 86.3689 13.5974 87.2062 13.5974C88.0435 13.5974 88.7971 13.7862 89.446 14.1429C90.1159 14.4997 90.6183 15.0033 90.9951 15.6328C91.3719 16.2623 91.5603 16.9757 91.5603 17.7941C91.5603 18.5915 91.3719 19.3259 90.9951 19.9554C90.6183 20.5849 90.1159 21.0885 89.446 21.4452C88.7762 21.802 88.0435 21.9908 87.2062 21.9908C86.3689 21.9908 85.6363 21.802 84.9664 21.4452ZM88.9436 19.6407C89.4042 19.179 89.6344 18.5495 89.6344 17.7941C89.6344 17.0387 89.4042 16.4092 88.9436 15.9475C88.4831 15.4859 87.897 15.2341 87.2062 15.2341C86.4945 15.2341 85.9293 15.4649 85.4688 15.9475C85.0083 16.4092 84.7989 17.0387 84.7989 17.7941C84.7989 18.5495 85.0292 19.179 85.4688 19.6407C85.9293 20.1023 86.4945 20.3541 87.2062 20.3541C87.897 20.3541 88.4831 20.1233 88.9436 19.6407ZM97.7354 13.6184V15.4439C97.568 15.423 97.4215 15.402 97.2959 15.402C96.5423 15.402 95.9771 15.6118 95.5584 16.0525C95.1398 16.4931 94.9304 17.1226 94.9304 17.92V21.8859H93.0256V13.7023H94.8467V14.8984C95.37 14.038 96.3329 13.6184 97.7354 13.6184ZM100.289 21.6761C99.5147 21.4452 98.9077 21.1305 98.4681 20.7318L99.1589 19.179C99.5985 19.5357 100.143 19.8085 100.771 20.0393C101.399 20.2492 102.048 20.3751 102.697 20.3751C103.492 20.3751 104.078 20.2492 104.476 19.9974C104.874 19.7456 105.062 19.4098 105.062 18.9902C105.062 18.6754 104.957 18.4236 104.727 18.2348C104.518 18.0459 104.225 17.878 103.89 17.7731C103.555 17.6682 103.094 17.5423 102.508 17.3954C101.692 17.2066 101.043 17.0177 100.52 16.8079C100.017 16.619 99.5775 16.3043 99.2217 15.9056C98.8658 15.4859 98.6774 14.9403 98.6774 14.2269C98.6774 13.6393 98.8449 13.0938 99.1589 12.6111C99.4729 12.1285 99.9543 11.7508 100.603 11.457C101.252 11.1633 102.048 11.0374 102.99 11.0374C103.639 11.0374 104.287 11.1213 104.915 11.2892C105.543 11.457 106.088 11.6879 106.548 12.0026L105.92 13.5554C105.46 13.2826 104.957 13.0728 104.455 12.9259C103.953 12.779 103.45 12.7161 102.969 12.7161C102.194 12.7161 101.608 12.842 101.21 13.1148C100.813 13.3875 100.645 13.7233 100.645 14.1639C100.645 14.4787 100.75 14.7305 100.98 14.9193C101.189 15.1082 101.482 15.2761 101.817 15.381C102.152 15.4859 102.613 15.6118 103.199 15.7587C103.994 15.9475 104.643 16.1364 105.146 16.3252C105.648 16.5141 106.088 16.8289 106.444 17.2275C106.799 17.6262 106.988 18.1928 106.988 18.8852C106.988 19.4728 106.82 20.0184 106.506 20.501C106.192 20.9836 105.69 21.3613 105.041 21.6551C104.392 21.9489 103.597 22.0748 102.655 22.0748C101.859 22.0328 101.043 21.9279 100.289 21.6761ZM116.219 18.4026H109.814C109.918 19.0111 110.211 19.4728 110.693 19.8295C111.174 20.1862 111.76 20.3541 112.451 20.3541C113.351 20.3541 114.084 20.0603 114.67 19.4728L115.696 20.6479C115.319 21.0885 114.859 21.4243 114.314 21.6341C113.749 21.8649 113.121 21.9698 112.409 21.9698C111.509 21.9698 110.714 21.781 110.044 21.4243C109.353 21.0675 108.83 20.5639 108.453 19.9344C108.076 19.3049 107.888 18.5705 107.888 17.7731C107.888 16.9757 108.076 16.2623 108.432 15.6118C108.788 14.9823 109.29 14.4787 109.939 14.122C110.588 13.7652 111.3 13.5764 112.116 13.5764C112.912 13.5764 113.623 13.7443 114.251 14.101C114.879 14.4577 115.361 14.9403 115.717 15.5908C116.073 16.2203 116.24 16.9757 116.24 17.7941C116.24 17.962 116.24 18.1508 116.219 18.4026ZM110.567 15.6957C110.149 16.0525 109.897 16.5351 109.793 17.1436H114.419C114.335 16.5561 114.084 16.0734 113.665 15.6957C113.247 15.318 112.723 15.1502 112.116 15.1502C111.509 15.1502 110.986 15.318 110.567 15.6957ZM123.525 14.4787C124.153 15.0662 124.488 15.9266 124.488 17.0807V21.8649H122.687V20.8787C122.457 21.2354 122.122 21.5082 121.683 21.697C121.243 21.8859 120.72 21.9908 120.113 21.9908C119.506 21.9908 118.961 21.8859 118.501 21.6761C118.04 21.4662 117.684 21.1725 117.433 20.7948C117.182 20.417 117.056 19.9974 117.056 19.5357C117.056 18.8013 117.329 18.2138 117.873 17.7731C118.417 17.3325 119.275 17.1016 120.448 17.1016H122.583V16.9757C122.583 16.4092 122.415 15.9685 122.08 15.6538C121.745 15.339 121.222 15.1921 120.552 15.1921C120.092 15.1921 119.652 15.2551 119.192 15.402C118.752 15.5489 118.375 15.7377 118.061 15.9895L117.308 14.6046C117.726 14.2689 118.25 14.038 118.857 13.8492C119.464 13.6813 120.092 13.5974 120.762 13.5974C121.976 13.6184 122.897 13.8911 123.525 14.4787ZM121.787 20.2702C122.164 20.0603 122.415 19.7456 122.583 19.3259V18.3816H120.615C119.506 18.3816 118.961 18.7384 118.961 19.4728C118.961 19.8295 119.108 20.1023 119.38 20.2911C119.652 20.501 120.029 20.6059 120.531 20.6059C120.992 20.6059 121.41 20.48 121.787 20.2702ZM131.186 13.6184V15.4439C131.019 15.423 130.872 15.402 130.747 15.402C129.993 15.402 129.428 15.6118 129.009 16.0525C128.59 16.4931 128.381 17.1226 128.381 17.92V21.8859H126.476V13.7023H128.297V14.8984C128.821 14.038 129.784 13.6184 131.186 13.6184ZM133.824 21.4452C133.154 21.0885 132.63 20.5849 132.254 19.9554C131.877 19.3259 131.689 18.5915 131.689 17.7941C131.689 16.9967 131.877 16.2623 132.254 15.6328C132.63 15.0033 133.154 14.4997 133.824 14.1429C134.494 13.7862 135.247 13.5974 136.105 13.5974C136.901 13.5974 137.613 13.7652 138.22 14.08C138.827 14.4157 139.287 14.8774 139.58 15.4859L138.115 16.3462C137.885 15.9685 137.592 15.6748 137.236 15.4859C136.88 15.297 136.503 15.1921 136.084 15.1921C135.373 15.1921 134.787 15.423 134.305 15.8846C133.845 16.3462 133.593 16.9757 133.593 17.7521C133.593 18.5285 133.824 19.158 134.284 19.6197C134.745 20.0813 135.331 20.3121 136.063 20.3121C136.482 20.3121 136.859 20.2072 137.215 20.0184C137.571 19.8295 137.864 19.5567 138.094 19.158L139.559 20.0184C139.245 20.6269 138.785 21.1095 138.178 21.4452C137.571 21.781 136.88 21.9489 136.084 21.9489C135.268 21.9908 134.494 21.802 133.824 21.4452ZM147.953 14.5207C148.581 15.1292 148.895 16.0105 148.895 17.2066V21.8859H146.99V17.4374C146.99 16.7239 146.823 16.1784 146.488 15.8216C146.153 15.4649 145.672 15.2761 145.044 15.2761C144.332 15.2761 143.788 15.4859 143.369 15.9056C142.971 16.3252 142.762 16.9338 142.762 17.7311V21.8649H140.857V10.5128H142.762V14.6466C143.076 14.3108 143.474 14.059 143.934 13.8702C144.395 13.7023 144.918 13.5974 145.483 13.5974C146.509 13.6184 147.346 13.9121 147.953 14.5207Z" fill="#FF2A23"/>
        <path d="M56.121 26.2502H55.3465C55.3255 26.1033 55.2627 25.9774 55.179 25.8725C55.0953 25.7676 54.9906 25.6837 54.886 25.5997C54.7604 25.5158 54.6348 25.4738 54.4882 25.4319C54.3417 25.3899 54.1952 25.3689 54.0277 25.3689C53.7347 25.3689 53.4625 25.4319 53.2323 25.5578C53.002 25.6837 52.8136 25.8725 52.688 26.1033C52.5624 26.3342 52.4787 26.6279 52.4787 26.9847C52.4787 27.3414 52.5415 27.6351 52.688 27.866C52.8136 28.0968 53.002 28.2856 53.2323 28.4115C53.4625 28.5374 53.7346 28.6004 54.0068 28.6004C54.1742 28.6004 54.3208 28.5794 54.4673 28.5374C54.6138 28.4955 54.7394 28.4535 54.865 28.3696C54.9906 28.3066 55.0744 28.2017 55.1581 28.0968C55.2418 27.9919 55.3046 27.866 55.3255 27.7401H56.1001C56.0582 27.9499 55.9745 28.1388 55.8698 28.3276C55.7442 28.4955 55.5977 28.6633 55.4093 28.7892C55.2209 28.9151 55.0116 29.0201 54.7813 29.083C54.551 29.146 54.2789 29.1879 54.0068 29.1879C53.5672 29.1879 53.1695 29.104 52.8345 28.9151C52.4996 28.7473 52.2275 28.4745 52.0182 28.1597C51.8298 27.824 51.7251 27.4463 51.7251 26.9847C51.7251 26.523 51.8298 26.1243 52.0182 25.8096C52.2275 25.4738 52.4787 25.222 52.8345 25.0542C53.1695 24.8863 53.5672 24.7814 54.0068 24.7814C54.2789 24.7814 54.5301 24.8233 54.7604 24.8863C54.9906 24.9492 55.1999 25.0542 55.3883 25.1801C55.5767 25.306 55.7233 25.4528 55.8489 25.6417C55.9954 25.8096 56.0791 26.0194 56.121 26.2502Z" fill="#FF2A23"/>
        <path d="M58.591 29.2091C58.2351 29.2091 57.9211 29.1461 57.649 28.9992C57.3769 28.8523 57.1676 28.6635 57.021 28.4117C56.8745 28.1599 56.7908 27.8661 56.7908 27.5304C56.7908 27.1946 56.8745 26.9009 57.021 26.6491C57.1676 26.3973 57.3769 26.2084 57.649 26.0615C57.9211 25.9146 58.2351 25.8517 58.591 25.8517C58.9468 25.8517 59.2608 25.9146 59.533 26.0615C59.8051 26.2084 60.0144 26.3973 60.161 26.6491C60.3075 26.9009 60.3912 27.1946 60.3912 27.5304C60.3912 27.8661 60.3075 28.1599 60.161 28.4117C60.0144 28.6635 59.8051 28.8523 59.533 28.9992C59.2608 29.1461 58.9468 29.2091 58.591 29.2091ZM58.591 28.6845C58.8213 28.6845 59.0097 28.6425 59.1771 28.5376C59.3236 28.4327 59.4492 28.3068 59.512 28.1179C59.5958 27.95 59.6167 27.7612 59.6167 27.5514C59.6167 27.3415 59.5748 27.1527 59.512 26.9848C59.4283 26.8169 59.3236 26.67 59.1771 26.5651C59.0306 26.4602 58.8422 26.3973 58.591 26.3973C58.3607 26.3973 58.1723 26.4392 58.0049 26.5651C57.8583 26.67 57.7327 26.8169 57.6699 26.9848C57.5862 27.1527 57.5653 27.3415 57.5653 27.5514C57.5653 27.7612 57.6071 27.95 57.6699 28.1179C57.7537 28.2858 57.8583 28.4327 58.0049 28.5376C58.1723 28.6425 58.3607 28.6845 58.591 28.6845Z" fill="#FF2A23"/>
        <path d="M62.8195 29.2091C62.4637 29.2091 62.1497 29.1461 61.8775 28.9992C61.6054 28.8523 61.3961 28.6635 61.2495 28.4117C61.103 28.1599 61.0193 27.8661 61.0193 27.5304C61.0193 27.1946 61.103 26.9009 61.2495 26.6491C61.3961 26.3973 61.6054 26.2084 61.8775 26.0615C62.1497 25.9146 62.4637 25.8517 62.8195 25.8517C63.1754 25.8517 63.4894 25.9146 63.7615 26.0615C64.0336 26.2084 64.2429 26.3973 64.3895 26.6491C64.536 26.9009 64.6197 27.1946 64.6197 27.5304C64.6197 27.8661 64.536 28.1599 64.3895 28.4117C64.2429 28.6635 64.0336 28.8523 63.7615 28.9992C63.4894 29.1461 63.1754 29.2091 62.8195 29.2091ZM62.8195 28.6845C63.0498 28.6845 63.2382 28.6425 63.4056 28.5376C63.5522 28.4327 63.6778 28.3068 63.7406 28.1179C63.8243 27.95 63.8452 27.7612 63.8452 27.5514C63.8452 27.3415 63.8034 27.1527 63.7406 26.9848C63.6568 26.8169 63.5522 26.67 63.4056 26.5651C63.2591 26.4602 63.0707 26.3973 62.8195 26.3973C62.5893 26.3973 62.4009 26.4392 62.2334 26.5651C62.0869 26.67 61.9613 26.8169 61.8985 26.9848C61.8147 27.1527 61.7938 27.3415 61.7938 27.5514C61.7938 27.7612 61.8357 27.95 61.8985 28.1179C61.9822 28.2858 62.0869 28.4327 62.2334 28.5376C62.4009 28.6425 62.5893 28.6845 62.8195 28.6845Z" fill="#FF2A23"/>
        <path d="M68.3877 24.7186L68.7017 25.1173C68.597 25.2012 68.4505 25.2642 68.3039 25.3062C68.1574 25.3481 67.9899 25.3691 67.8016 25.3691C67.6132 25.3691 67.4038 25.3901 67.1526 25.3901C66.8805 25.3901 66.6503 25.4531 66.4828 25.537C66.3153 25.6209 66.1688 25.7678 66.0641 25.9567C65.9595 26.1455 65.8967 26.3553 65.8757 26.6281H65.9176C66.0432 26.4183 66.2107 26.2714 66.4409 26.1875C66.6712 26.0826 66.9014 26.0406 67.1945 26.0406C67.5085 26.0406 67.7806 26.1035 68.0109 26.2294C68.2411 26.3553 68.4505 26.5232 68.5761 26.754C68.7226 26.9849 68.7854 27.2576 68.7854 27.5934C68.7854 27.9291 68.7226 28.2229 68.5761 28.4537C68.4295 28.7055 68.2202 28.8944 67.969 29.0203C67.6969 29.1462 67.4038 29.2091 67.048 29.2091C66.6921 29.2091 66.3781 29.1462 66.1269 28.9993C65.8757 28.8524 65.6664 28.6635 65.5199 28.3908C65.3733 28.118 65.3105 27.7822 65.3105 27.4045V27.0898C65.3105 26.3553 65.4571 25.7888 65.7711 25.4321C66.0851 25.0753 66.5456 24.8655 67.1736 24.8655C67.3829 24.8655 67.5504 24.8655 67.7178 24.8655C67.8853 24.8655 68.0109 24.8655 68.1365 24.8445C68.2202 24.8235 68.3039 24.7816 68.3877 24.7186ZM67.048 28.6845C67.2573 28.6845 67.4248 28.6426 67.5922 28.5586C67.7388 28.4747 67.8644 28.3488 67.9481 28.1809C68.0318 28.0131 68.0737 27.8242 68.0737 27.5934C68.0737 27.3835 68.0318 27.1947 67.9481 27.0268C67.8644 26.8799 67.7597 26.754 67.5922 26.6701C67.4457 26.5862 67.2573 26.5442 67.048 26.5442C66.9014 26.5442 66.7549 26.5652 66.6293 26.6072C66.5037 26.6491 66.3991 26.7121 66.3153 26.817C66.2316 26.9009 66.1688 27.0058 66.106 27.1317C66.0432 27.2576 66.0432 27.4045 66.0223 27.5724C66.0223 27.9081 66.106 28.1599 66.2944 28.3698C66.4828 28.6006 66.734 28.6845 67.048 28.6845Z" fill="#FF2A23"/>
        <path d="M69.6436 25.9355H70.3762V28.6214H71.695V25.9355H72.4276V28.6214H73.7464V25.9355H74.479V29.167H69.6645V25.9355H69.6436ZM75.107 28.6005L75.0442 30.0693H74.3116V29.146H73.8301V28.6005H75.107Z" fill="#FF2A23"/>
        <path d="M77.5563 29.2091C77.1795 29.2091 76.8655 29.1461 76.5933 28.9992C76.3212 28.8523 76.1119 28.6635 75.9654 28.4117C75.8188 28.1599 75.7351 27.8661 75.7351 27.5304C75.7351 27.1946 75.8188 26.9009 75.9654 26.6491C76.1119 26.3973 76.3212 26.2084 76.5724 26.0615C76.8445 25.9146 77.1376 25.8517 77.4935 25.8517C77.7028 25.8517 77.9121 25.8727 78.1215 25.9356C78.3308 25.9986 78.4982 26.0825 78.6657 26.2084C78.8332 26.3343 78.9588 26.5022 79.0425 26.712C79.1262 26.9218 79.189 27.1737 79.189 27.4674V27.6982H76.1538V27.2366H78.4564C78.4564 27.0687 78.4145 26.9218 78.3308 26.7959C78.247 26.67 78.1424 26.5651 77.9959 26.5022C77.8493 26.4392 77.6819 26.3973 77.4935 26.3973C77.2841 26.3973 77.0957 26.4392 76.9492 26.5232C76.8027 26.6071 76.6771 26.712 76.5933 26.8589C76.5096 27.0058 76.4678 27.1527 76.4678 27.2996V27.6773C76.4678 27.8871 76.5096 28.0759 76.5933 28.2228C76.6771 28.3697 76.8027 28.4956 76.9701 28.5586C77.1376 28.6425 77.326 28.6845 77.5353 28.6845C77.6819 28.6845 77.8075 28.6635 77.9121 28.6425C78.0377 28.6005 78.1214 28.5586 78.2052 28.4956C78.2889 28.4327 78.3517 28.3487 78.3936 28.2438L79.1053 28.3487C79.0425 28.5166 78.9378 28.6845 78.8122 28.8104C78.6657 28.9363 78.4773 29.0412 78.268 29.1251C78.0796 29.1881 77.8284 29.2091 77.5563 29.2091Z" fill="#FF2A23"/>
        <path d="M81.6382 29.2091C81.2614 29.2091 80.9474 29.1461 80.6753 28.9993C80.4031 28.8524 80.2147 28.6635 80.0682 28.4117C79.9217 28.1599 79.8589 27.8661 79.8589 27.5514C79.8589 27.2156 79.9217 26.9429 80.0682 26.6911C80.2147 26.4393 80.4241 26.2504 80.6753 26.1035C80.9474 25.9566 81.2614 25.8937 81.6172 25.8937C81.9103 25.8937 82.1615 25.9356 82.3918 26.0196C82.622 26.1035 82.8104 26.2294 82.936 26.3973C83.0616 26.5652 83.1663 26.754 83.1872 26.9638H82.4546C82.4127 26.817 82.329 26.6911 82.1824 26.5652C82.0359 26.4602 81.8475 26.3973 81.6172 26.3973C81.4079 26.3973 81.2195 26.4393 81.073 26.5442C80.9265 26.6491 80.8009 26.775 80.7171 26.9429C80.6334 27.1107 80.5915 27.3206 80.5915 27.5304C80.5915 27.7612 80.6334 27.9711 80.7171 28.1389C80.8009 28.3068 80.9265 28.4327 81.073 28.5376C81.2195 28.6215 81.4079 28.6845 81.6172 28.6845C81.7638 28.6845 81.8894 28.6635 81.994 28.6215C82.0987 28.5796 82.2034 28.5166 82.2871 28.4327C82.3708 28.3488 82.4127 28.2438 82.4546 28.1389H83.1872C83.1663 28.3488 83.0825 28.5376 82.936 28.7055C82.8104 28.8734 82.622 28.9992 82.3918 29.0832C82.2034 29.1671 81.9522 29.2091 81.6382 29.2091Z" fill="#FF2A23"/>
        <path d="M83.8152 26.4602V25.9147H87.0388V26.4602H85.8038V29.1461H85.0712V26.4602H83.8152Z" fill="#FF2A23"/>
        <path d="M87.8342 29.1461V25.9147H89.4251C89.8647 25.9147 90.1996 25.9986 90.4508 26.1455C90.702 26.2924 90.8276 26.5022 90.8276 26.775C90.8276 26.9639 90.7648 27.1107 90.6183 27.2157C90.4718 27.3206 90.2834 27.4045 90.0531 27.4465C90.2206 27.4675 90.388 27.5094 90.5136 27.5724C90.6602 27.6353 90.7648 27.7402 90.8486 27.8452C90.9323 27.9711 90.9742 28.097 90.9742 28.2648C90.9742 28.4327 90.9323 28.5796 90.8276 28.7265C90.723 28.8524 90.5764 28.9573 90.3671 29.0412C90.1787 29.1252 89.9275 29.1461 89.6554 29.1461H87.8342ZM88.525 27.2786H89.4251C89.5717 27.2786 89.6763 27.2576 89.781 27.2366C89.8856 27.1947 89.9484 27.1527 90.0112 27.0898C90.074 27.0268 90.095 26.9639 90.095 26.8589C90.095 26.733 90.0322 26.6281 89.9066 26.5652C89.781 26.5022 89.6135 26.4602 89.4042 26.4602H88.525V27.2786ZM88.525 28.6216H89.6554C89.8438 28.6216 89.9903 28.5796 90.095 28.5166C90.1996 28.4327 90.2415 28.3488 90.2415 28.2229C90.2415 28.076 90.1996 27.9501 90.095 27.8661C89.9903 27.7822 89.8438 27.7402 89.6554 27.7402H88.525V28.6216Z" fill="#FF2A23"/>
        <path d="M93.4233 29.2091C93.0674 29.2091 92.7534 29.1461 92.4813 28.9992C92.2092 28.8523 91.9998 28.6635 91.8533 28.4117C91.7068 28.1599 91.623 27.8661 91.623 27.5304C91.623 27.1946 91.7068 26.9009 91.8533 26.6491C91.9998 26.3973 92.2092 26.2084 92.4813 26.0615C92.7534 25.9146 93.0674 25.8517 93.4233 25.8517C93.7791 25.8517 94.0931 25.9146 94.3653 26.0615C94.6374 26.2084 94.8467 26.3973 94.9932 26.6491C95.1398 26.9009 95.2235 27.1946 95.2235 27.5304C95.2235 27.8661 95.1398 28.1599 94.9932 28.4117C94.8467 28.6635 94.6374 28.8523 94.3653 28.9992C94.0931 29.1461 93.7791 29.2091 93.4233 29.2091ZM93.4233 28.6845C93.6535 28.6845 93.8419 28.6425 94.0094 28.5376C94.1559 28.4327 94.2815 28.3068 94.3443 28.1179C94.428 27.95 94.449 27.7612 94.449 27.5514C94.449 27.3415 94.4071 27.1527 94.3443 26.9848C94.2606 26.8169 94.1559 26.67 94.0094 26.5651C93.8629 26.4602 93.6745 26.3973 93.4233 26.3973C93.193 26.3973 93.0046 26.4392 92.8371 26.5651C92.6906 26.67 92.565 26.8169 92.5022 26.9848C92.4185 27.1527 92.3976 27.3415 92.3976 27.5514C92.3976 27.7612 92.4394 27.95 92.5022 28.1179C92.586 28.2858 92.6906 28.4327 92.8371 28.5376C92.9837 28.6425 93.1721 28.6845 93.4233 28.6845Z" fill="#FF2A23"/>
        <path d="M97.5261 30.0903V28.6214H97.8401C97.9238 28.5585 97.9866 28.4955 98.0494 28.4116C98.1122 28.3277 98.1541 28.2228 98.196 28.0969C98.2378 27.971 98.2588 27.8451 98.3006 27.6772C98.3425 27.5093 98.3425 27.3415 98.3634 27.1316L98.489 25.9355H101.085V28.6214H101.671V30.0903H100.938V29.167H98.2797V30.0903H97.5261ZM98.6356 28.6005H100.331V26.4601H99.138L99.0542 27.1316C99.0124 27.4674 98.9705 27.7611 98.9077 28.0129C98.8658 28.2647 98.7612 28.4536 98.6356 28.6005Z" fill="#FF2A23"/>
        <path d="M103.994 29.2091C103.638 29.2091 103.324 29.1461 103.052 28.9992C102.78 28.8523 102.571 28.6635 102.424 28.4117C102.278 28.1599 102.194 27.8661 102.194 27.5304C102.194 27.1946 102.278 26.9009 102.424 26.6491C102.571 26.3973 102.78 26.2084 103.052 26.0615C103.324 25.9146 103.638 25.8517 103.994 25.8517C104.35 25.8517 104.664 25.9146 104.936 26.0615C105.208 26.2084 105.418 26.3973 105.564 26.6491C105.711 26.9009 105.795 27.1946 105.795 27.5304C105.795 27.8661 105.711 28.1599 105.564 28.4117C105.418 28.6635 105.208 28.8523 104.936 28.9992C104.664 29.1461 104.35 29.2091 103.994 29.2091ZM103.994 28.6845C104.225 28.6845 104.413 28.6425 104.58 28.5376C104.727 28.4327 104.853 28.3068 104.915 28.1179C104.999 27.95 105.02 27.7612 105.02 27.5514C105.02 27.3415 104.978 27.1527 104.915 26.9848C104.832 26.8169 104.727 26.67 104.58 26.5651C104.434 26.4602 104.246 26.3973 103.994 26.3973C103.764 26.3973 103.576 26.4392 103.408 26.5651C103.262 26.67 103.136 26.8169 103.073 26.9848C102.99 27.1527 102.969 27.3415 102.969 27.5514C102.969 27.7612 103.01 27.95 103.073 28.1179C103.157 28.2858 103.262 28.4327 103.408 28.5376C103.576 28.6425 103.764 28.6845 103.994 28.6845Z" fill="#FF2A23"/>
        <path d="M107.344 25.9355V29.167H106.611V25.9355H107.344ZM109.207 27.2785V27.8241H107.134V27.2785H109.207ZM109.73 25.9355V29.167H108.997V25.9355H109.73Z" fill="#FF2A23"/>
        <path d="M112.347 29.2091C111.991 29.2091 111.677 29.1461 111.405 28.9992C111.133 28.8523 110.923 28.6635 110.777 28.4117C110.63 28.1599 110.546 27.8661 110.546 27.5304C110.546 27.1946 110.63 26.9009 110.777 26.6491C110.923 26.3973 111.133 26.2084 111.405 26.0615C111.677 25.9146 111.991 25.8517 112.347 25.8517C112.702 25.8517 113.016 25.9146 113.289 26.0615C113.561 26.2084 113.77 26.3973 113.917 26.6491C114.063 26.9009 114.147 27.1946 114.147 27.5304C114.147 27.8661 114.063 28.1599 113.917 28.4117C113.77 28.6635 113.561 28.8523 113.289 28.9992C113.016 29.1461 112.702 29.2091 112.347 29.2091ZM112.347 28.6845C112.577 28.6845 112.765 28.6425 112.933 28.5376C113.079 28.4327 113.205 28.3068 113.268 28.1179C113.351 27.95 113.372 27.7612 113.372 27.5514C113.372 27.3415 113.33 27.1527 113.268 26.9848C113.184 26.8169 113.079 26.67 112.933 26.5651C112.786 26.4602 112.598 26.3973 112.347 26.3973C112.116 26.3973 111.928 26.4392 111.76 26.5651C111.614 26.67 111.488 26.8169 111.426 26.9848C111.342 27.1527 111.321 27.3415 111.321 27.5514C111.321 27.7612 111.363 27.95 111.426 28.1179C111.509 28.2858 111.614 28.4327 111.76 28.5376C111.907 28.6425 112.116 28.6845 112.347 28.6845Z" fill="#FF2A23"/>
        <path d="M114.963 30.3632V25.9356H115.696V26.4602H115.759C115.8 26.3973 115.863 26.3134 115.947 26.2294C116.031 26.1455 116.135 26.0615 116.282 25.9986C116.428 25.9356 116.617 25.8937 116.847 25.8937C117.161 25.8937 117.433 25.9566 117.663 26.0825C117.915 26.2084 118.103 26.3973 118.229 26.6491C118.375 26.9009 118.438 27.1947 118.438 27.5514C118.438 27.9081 118.375 28.2019 118.229 28.4537C118.082 28.7055 117.894 28.8943 117.663 29.0202C117.433 29.1461 117.14 29.2301 116.847 29.2301C116.617 29.2301 116.428 29.1881 116.282 29.1252C116.135 29.0622 116.031 28.9783 115.947 28.8943C115.863 28.8104 115.8 28.7265 115.759 28.6635H115.717V30.3632H114.963ZM115.696 27.5304C115.696 27.7612 115.738 27.9501 115.821 28.1179C115.905 28.2858 116.01 28.4117 116.156 28.5166C116.303 28.6215 116.491 28.6635 116.701 28.6635C116.931 28.6635 117.098 28.6215 117.266 28.5166C117.412 28.4117 117.538 28.2858 117.601 28.1179C117.684 27.9501 117.726 27.7612 117.726 27.5304C117.726 27.3206 117.684 27.1317 117.622 26.9638C117.538 26.796 117.433 26.6701 117.287 26.5652C117.14 26.4602 116.952 26.4183 116.721 26.4183C116.512 26.4183 116.324 26.4602 116.177 26.5652C116.031 26.6491 115.926 26.796 115.842 26.9638C115.717 27.1107 115.696 27.3206 115.696 27.5304Z" fill="#FF2A23"/>
        <path d="M120.908 29.2091C120.552 29.2091 120.238 29.1461 119.966 28.9992C119.694 28.8523 119.485 28.6635 119.338 28.4117C119.192 28.1599 119.108 27.8661 119.108 27.5304C119.108 27.1946 119.192 26.9009 119.338 26.6491C119.485 26.3973 119.694 26.2084 119.966 26.0615C120.238 25.9146 120.552 25.8517 120.908 25.8517C121.264 25.8517 121.578 25.9146 121.85 26.0615C122.122 26.2084 122.332 26.3973 122.478 26.6491C122.625 26.9009 122.708 27.1946 122.708 27.5304C122.708 27.8661 122.625 28.1599 122.478 28.4117C122.332 28.6635 122.122 28.8523 121.85 28.9992C121.578 29.1461 121.264 29.2091 120.908 29.2091ZM120.908 28.6845C121.138 28.6845 121.327 28.6425 121.494 28.5376C121.641 28.4327 121.766 28.3068 121.829 28.1179C121.913 27.95 121.934 27.7612 121.934 27.5514C121.934 27.3415 121.892 27.1527 121.829 26.9848C121.745 26.8169 121.641 26.67 121.494 26.5651C121.348 26.4602 121.159 26.3973 120.908 26.3973C120.678 26.3973 120.489 26.4392 120.322 26.5651C120.175 26.67 120.05 26.8169 119.987 26.9848C119.903 27.1527 119.882 27.3415 119.882 27.5514C119.882 27.7612 119.924 27.95 119.987 28.1179C120.071 28.2858 120.175 28.4327 120.322 28.5376C120.469 28.6425 120.678 28.6845 120.908 28.6845Z" fill="#FF2A23"/>
        <path d="M123.525 29.1461V25.9147H125.116C125.555 25.9147 125.89 25.9986 126.141 26.1455C126.392 26.2924 126.518 26.5022 126.518 26.775C126.518 26.9639 126.455 27.1107 126.309 27.2157C126.162 27.3206 125.974 27.4045 125.744 27.4465C125.911 27.4675 126.078 27.5094 126.204 27.5724C126.351 27.6353 126.455 27.7402 126.539 27.8452C126.623 27.9711 126.665 28.097 126.665 28.2648C126.665 28.4327 126.623 28.5796 126.518 28.7265C126.413 28.8524 126.267 28.9573 126.058 29.0412C125.869 29.1252 125.618 29.1461 125.346 29.1461H123.525ZM124.215 27.2786H125.116C125.262 27.2786 125.367 27.2576 125.471 27.2366C125.576 27.1947 125.639 27.1527 125.702 27.0898C125.764 27.0268 125.785 26.9639 125.785 26.8589C125.785 26.733 125.723 26.6281 125.597 26.5652C125.471 26.5022 125.304 26.4602 125.095 26.4602H124.215V27.2786ZM124.215 28.6216H125.346C125.534 28.6216 125.681 28.5796 125.785 28.5166C125.89 28.4327 125.932 28.3488 125.932 28.2229C125.932 28.076 125.89 27.9501 125.785 27.8661C125.681 27.7822 125.534 27.7402 125.346 27.7402H124.215V28.6216Z" fill="#FF2A23"/>
        <path d="M129.365 29.1461V25.9147H130.098V27.2576H130.453L131.709 25.9147H132.631L131.144 27.4884L132.631 29.1461H131.709L130.558 27.8661H130.119V29.1461H129.365Z" fill="#FF2A23"/>
        <path d="M133.259 30.3632V25.9356H133.991V26.4602H134.054C134.096 26.3973 134.159 26.3134 134.242 26.2294C134.326 26.1455 134.431 26.0615 134.577 25.9986C134.724 25.9356 134.912 25.8937 135.143 25.8937C135.456 25.8937 135.729 25.9566 135.959 26.0825C136.21 26.2084 136.398 26.3973 136.524 26.6491C136.671 26.9009 136.733 27.1947 136.733 27.5514C136.733 27.9081 136.671 28.2019 136.524 28.4537C136.378 28.7055 136.189 28.8943 135.959 29.0202C135.729 29.1461 135.436 29.2301 135.143 29.2301C134.912 29.2301 134.724 29.1881 134.577 29.1252C134.431 29.0622 134.326 28.9783 134.242 28.8943C134.159 28.8104 134.096 28.7265 134.054 28.6635H134.012V30.3632H133.259ZM133.991 27.5304C133.991 27.7612 134.033 27.9501 134.117 28.1179C134.201 28.2858 134.305 28.4117 134.452 28.5166C134.598 28.6215 134.787 28.6635 134.996 28.6635C135.226 28.6635 135.394 28.6215 135.561 28.5166C135.708 28.4117 135.833 28.2858 135.896 28.1179C135.98 27.9501 136.022 27.7612 136.022 27.5304C136.022 27.3206 135.98 27.1317 135.917 26.9638C135.833 26.796 135.729 26.6701 135.582 26.5652C135.436 26.4602 135.247 26.4183 135.017 26.4183C134.808 26.4183 134.619 26.4602 134.473 26.5652C134.326 26.6491 134.221 26.796 134.138 26.9638C134.012 27.1107 133.991 27.3206 133.991 27.5304Z" fill="#FF2A23"/>
        <path d="M139.204 29.2091C138.848 29.2091 138.534 29.1461 138.262 28.9992C137.989 28.8523 137.78 28.6635 137.634 28.4117C137.487 28.1599 137.403 27.8661 137.403 27.5304C137.403 27.1946 137.487 26.9009 137.634 26.6491C137.78 26.3973 137.989 26.2084 138.262 26.0615C138.534 25.9146 138.848 25.8517 139.204 25.8517C139.559 25.8517 139.873 25.9146 140.146 26.0615C140.418 26.2084 140.627 26.3973 140.774 26.6491C140.92 26.9009 141.004 27.1946 141.004 27.5304C141.004 27.8661 140.92 28.1599 140.774 28.4117C140.627 28.6635 140.418 28.8523 140.146 28.9992C139.873 29.1461 139.559 29.2091 139.204 29.2091ZM139.204 28.6845C139.434 28.6845 139.622 28.6425 139.79 28.5376C139.936 28.4327 140.062 28.3068 140.125 28.1179C140.208 27.95 140.229 27.7612 140.229 27.5514C140.229 27.3415 140.187 27.1527 140.125 26.9848C140.041 26.8169 139.936 26.67 139.79 26.5651C139.643 26.4602 139.455 26.3973 139.204 26.3973C138.973 26.3973 138.785 26.4392 138.617 26.5651C138.471 26.67 138.345 26.8169 138.283 26.9848C138.199 27.1527 138.178 27.3415 138.178 27.5514C138.178 27.7612 138.22 27.95 138.283 28.1179C138.366 28.2858 138.471 28.4327 138.617 28.5376C138.764 28.6425 138.973 28.6845 139.204 28.6845Z" fill="#FF2A23"/>
        <path d="M141.82 29.1461V25.9147H143.411C143.851 25.9147 144.185 25.9986 144.437 26.1455C144.688 26.2924 144.813 26.5022 144.813 26.775C144.813 26.9639 144.751 27.1107 144.604 27.2157C144.458 27.3206 144.269 27.4045 144.039 27.4465C144.206 27.4675 144.374 27.5094 144.499 27.5724C144.646 27.6353 144.751 27.7402 144.834 27.8452C144.918 27.9711 144.96 28.097 144.96 28.2648C144.96 28.4327 144.918 28.5796 144.813 28.7265C144.709 28.8524 144.562 28.9573 144.353 29.0412C144.165 29.1252 143.913 29.1461 143.641 29.1461H141.82ZM142.511 27.2786H143.411C143.557 27.2786 143.662 27.2576 143.767 27.2366C143.871 27.1947 143.934 27.1527 143.997 27.0898C144.06 27.0268 144.081 26.9639 144.081 26.8589C144.081 26.733 144.018 26.6281 143.892 26.5652C143.767 26.5022 143.599 26.4602 143.39 26.4602H142.511V27.2786ZM142.511 28.6216H143.641C143.83 28.6216 143.976 28.5796 144.081 28.5166C144.185 28.4327 144.227 28.3488 144.227 28.2229C144.227 28.076 144.185 27.9501 144.081 27.8661C143.976 27.7822 143.83 27.7402 143.641 27.7402H142.511V28.6216Z" fill="#FF2A23"/>
        <path d="M146.53 28.2648L148.205 25.9147H149V29.1461H148.267V26.796L146.593 29.1461H145.776V25.9147H146.509V28.2648H146.53Z" fill="#FF2A23"/>
    </g>
    <defs>
        <clipPath id="clip0_1841_14553">
            <rect width="149" height="32" fill="white"/>
        </clipPath>
    </defs>
</svg>